<svg xmlns="http://www.w3.org/2000/svg" viewBox="0 0 1254 1254" width="1254" height="1254" role="img" aria-label="Bedrijfspanden icoon">
  <path d="M 606 521 L 603 526 L 603 610 L 605 614 L 608 616 L 686 616 L 691 612 L 692 609 L 692 526 L 689 521 L 685 519 L 615 519 Z M 617 533 L 677 533 L 678 534 L 678 602 L 677 603 L 617 603 L 616 602 L 616 534 Z M 467 520 L 463 526 L 463 610 L 464 612 L 469 616 L 546 616 L 548 615 L 552 610 L 552 525 L 548 520 L 545 519 L 470 519 Z M 478 533 L 537 533 L 538 534 L 538 602 L 537 603 L 478 603 L 477 602 L 477 534 Z M 326 521 L 323 525 L 323 610 L 324 612 L 329 616 L 407 616 L 410 614 L 412 610 L 412 526 L 411 523 L 408 520 L 405 519 L 331 519 Z M 338 533 L 398 533 L 399 534 L 399 602 L 398 603 L 338 603 L 337 602 L 337 534 Z M 1016 471 L 1007 475 L 1003 479 L 999 488 L 999 495 L 1004 505 L 1009 509 L 1014 511 L 1022 511 L 1032 506 L 1036 501 L 1038 496 L 1038 485 L 1035 479 L 1028 473 L 1022 471 Z M 1012 487 L 1016 484 L 1022 484 L 1026 488 L 1025 496 L 1020 499 L 1015 498 L 1011 493 Z M 606 376 L 603 381 L 603 465 L 605 469 L 611 472 L 622 472 L 623 471 L 683 472 L 687 471 L 691 467 L 692 464 L 692 382 L 691 379 L 687 375 L 608 375 Z M 617 388 L 677 388 L 678 389 L 678 457 L 677 458 L 617 458 L 616 457 L 616 389 Z M 468 375 L 463 381 L 463 465 L 465 469 L 472 472 L 485 472 L 486 471 L 529 471 L 530 472 L 536 472 L 537 471 L 547 471 L 549 470 L 552 465 L 552 381 L 547 375 Z M 478 388 L 537 388 L 538 389 L 538 457 L 537 458 L 478 458 L 477 457 L 477 389 Z M 327 376 L 323 381 L 323 466 L 325 469 L 330 472 L 338 472 L 339 471 L 400 471 L 405 472 L 409 470 L 412 465 L 412 381 L 410 377 L 407 375 L 329 375 Z M 338 388 L 397 388 L 399 390 L 399 457 L 398 458 L 338 458 L 337 457 L 337 389 Z M 230 251 L 228 256 L 228 305 L 234 313 L 237 314 L 254 314 L 255 315 L 255 916 L 254 917 L 236 917 L 232 919 L 229 923 L 228 926 L 228 959 L 231 965 L 236 968 L 730 968 L 749 977 L 761 981 L 766 984 L 848 1017 L 882 1032 L 892 1032 L 898 1029 L 902 1024 L 911 1001 L 929 962 L 933 950 L 937 943 L 939 936 L 946 922 L 956 897 L 964 889 L 970 873 L 973 869 L 983 844 L 997 815 L 997 810 L 1009 785 L 1010 775 L 1006 766 L 1001 762 L 991 757 L 983 749 L 976 737 L 972 721 L 973 702 L 978 687 L 1023 599 L 1025 597 L 1049 548 L 1051 546 L 1069 508 L 1072 493 L 1072 484 L 1069 470 L 1062 456 L 1051 445 L 1037 438 L 1027 436 L 1010 437 L 1001 440 L 993 444 L 984 451 L 976 460 L 969 472 L 899 647 L 893 659 L 888 666 L 872 681 L 856 689 L 848 691 L 831 691 L 820 687 L 810 687 L 803 691 L 797 698 L 785 724 L 782 727 L 780 734 L 758 781 L 758 784 L 749 803 L 749 810 L 742 824 L 742 826 L 693 931 L 690 939 L 690 945 L 693 951 L 692 954 L 242 954 L 241 953 L 241 934 L 243 931 L 681 931 L 687 919 L 687 917 L 632 917 L 631 916 L 631 731 L 632 730 L 651 730 L 657 724 L 657 679 L 655 676 L 649 673 L 361 673 L 358 674 L 353 680 L 353 686 L 352 687 L 353 691 L 353 724 L 359 730 L 382 730 L 383 731 L 383 916 L 382 917 L 269 917 L 268 916 L 268 315 L 269 314 L 744 314 L 745 315 L 745 780 L 746 781 L 759 753 L 759 315 L 760 314 L 773 314 L 778 312 L 781 308 L 782 305 L 782 255 L 781 252 L 775 247 L 761 247 L 760 246 L 749 246 L 748 247 L 742 247 L 741 246 L 721 246 L 720 247 L 707 247 L 706 246 L 701 246 L 700 247 L 692 247 L 691 246 L 686 246 L 685 247 L 677 247 L 676 246 L 520 246 L 519 247 L 516 246 L 500 246 L 499 247 L 483 247 L 482 246 L 455 246 L 454 247 L 451 246 L 429 246 L 428 247 L 415 247 L 414 246 L 337 246 L 336 247 L 247 246 L 246 247 L 235 247 Z M 760 818 L 770 821 L 835 849 L 857 857 L 864 861 L 936 890 L 942 894 L 942 897 L 891 1016 L 888 1019 L 871 1013 L 867 1009 L 883 971 L 900 925 L 898 926 L 860 1005 L 855 1006 L 830 995 L 830 992 L 843 962 L 844 957 L 850 945 L 851 940 L 865 905 L 863 906 L 840 952 L 830 975 L 821 991 L 809 987 L 787 977 L 787 974 L 806 928 L 814 904 L 812 906 L 780 971 L 778 973 L 773 972 L 768 969 L 737 957 L 735 955 L 755 905 L 758 894 L 760 891 L 760 888 L 759 888 L 753 901 L 751 903 L 727 952 L 704 943 L 706 935 Z M 764 801 L 768 792 L 771 791 L 839 820 L 846 822 L 858 828 L 911 849 L 916 852 L 933 858 L 940 862 L 952 866 L 957 869 L 957 872 L 953 880 L 948 881 L 767 806 L 764 804 Z M 792 738 L 796 737 L 840 756 L 867 766 L 879 772 L 981 813 L 982 815 L 964 855 L 961 856 L 946 850 L 941 847 L 934 845 L 929 842 L 922 840 L 917 837 L 910 835 L 905 832 L 893 828 L 881 822 L 869 818 L 845 807 L 833 803 L 828 800 L 776 779 L 775 776 Z M 515 730 L 617 730 L 618 731 L 618 914 L 616 917 L 515 917 L 514 916 L 514 731 Z M 397 730 L 499 730 L 500 731 L 500 916 L 499 917 L 397 917 L 396 916 L 396 731 Z M 366 688 L 367 687 L 643 687 L 644 688 L 644 716 L 643 717 L 367 717 L 366 716 Z M 1025 449 L 1040 454 L 1054 468 L 1059 483 L 1058 500 L 1056 506 L 1031 556 L 1029 558 L 1028 562 L 1026 564 L 1026 566 L 1024 568 L 965 683 L 959 706 L 959 725 L 961 734 L 967 749 L 973 758 L 982 767 L 993 773 L 996 776 L 996 782 L 989 799 L 986 801 L 930 777 L 913 771 L 908 768 L 896 764 L 891 761 L 869 753 L 845 742 L 840 741 L 835 738 L 802 725 L 800 723 L 801 719 L 807 706 L 812 701 L 817 700 L 820 702 L 832 705 L 845 705 L 860 702 L 875 695 L 884 689 L 899 674 L 905 665 L 913 648 L 959 532 L 962 527 L 976 490 L 985 470 L 999 456 L 1010 451 Z M 241 264 L 243 260 L 767 260 L 768 261 L 768 299 L 767 300 L 242 300 L 241 299 Z" fill="currentColor" fill-rule="evenodd" clip-rule="evenodd"/>
</svg>