<svg xmlns="http://www.w3.org/2000/svg" viewBox="0 0 1254 1254" width="1254" height="1254" role="img" aria-label="Buitenschilderwerkzaamheden icoon">
  <path d="M 531 789 L 531 798 L 535 803 L 539 805 L 651 805 L 651 804 L 647 800 L 646 800 L 626 782 L 539 782 L 535 784 Z M 277 727 L 273 735 L 273 912 L 274 913 L 274 915 L 279 921 L 287 925 L 502 925 L 507 923 L 512 919 L 516 911 L 516 736 L 513 729 L 506 722 L 498 719 L 291 719 L 283 722 Z M 493 777 L 493 901 L 492 902 L 297 902 L 296 901 L 296 793 L 297 792 L 300 792 L 305 794 L 317 794 L 318 793 L 322 793 L 323 792 L 331 790 L 332 791 L 332 814 L 333 815 L 334 822 L 337 828 L 345 836 L 352 840 L 354 840 L 355 841 L 360 841 L 361 842 L 366 842 L 367 841 L 372 841 L 373 840 L 375 840 L 382 836 L 389 829 L 390 826 L 392 824 L 393 818 L 394 817 L 394 793 L 395 792 L 401 793 L 402 794 L 417 794 L 418 793 L 421 793 L 431 787 L 439 776 L 492 776 Z M 441 743 L 442 742 L 492 742 L 493 743 L 493 753 L 492 754 L 442 754 L 441 753 Z M 296 743 L 297 742 L 418 742 L 419 743 L 419 766 L 414 772 L 412 772 L 411 773 L 403 773 L 391 767 L 383 767 L 379 769 L 375 773 L 373 777 L 373 803 L 372 804 L 372 814 L 368 819 L 366 820 L 361 820 L 355 815 L 355 813 L 354 812 L 354 785 L 353 784 L 352 779 L 349 774 L 345 770 L 339 767 L 329 767 L 326 769 L 324 769 L 319 772 L 316 772 L 315 773 L 306 773 L 298 770 L 296 768 Z M 995 483 L 991 485 L 986 490 L 984 495 L 984 502 L 986 507 L 991 512 L 995 514 L 1005 514 L 1010 511 L 1014 506 L 1014 504 L 1015 503 L 1015 493 L 1013 489 L 1009 485 L 1005 483 Z M 483 462 L 481 466 L 481 627 L 483 631 L 486 634 L 490 636 L 656 636 L 660 634 L 665 628 L 665 465 L 660 459 L 655 457 L 491 457 L 485 460 Z M 584 559 L 585 558 L 642 558 L 643 559 L 643 612 L 642 613 L 585 613 L 584 612 Z M 504 559 L 505 558 L 561 558 L 562 559 L 562 612 L 561 613 L 505 613 L 504 612 Z M 584 481 L 585 480 L 642 480 L 643 481 L 643 534 L 642 535 L 585 535 L 584 534 Z M 504 481 L 505 480 L 561 480 L 562 481 L 562 534 L 561 535 L 505 535 L 504 534 Z M 1035 443 L 1022 438 L 1017 438 L 1016 437 L 1005 437 L 1004 438 L 999 438 L 995 440 L 992 440 L 974 450 L 946 477 L 946 478 L 936 489 L 879 565 L 869 575 L 862 579 L 860 579 L 856 581 L 839 581 L 838 580 L 835 580 L 834 579 L 823 576 L 803 566 L 801 566 L 797 564 L 794 564 L 793 563 L 780 564 L 771 569 L 760 580 L 742 604 L 734 611 L 731 619 L 713 639 L 712 639 L 706 645 L 700 649 L 685 662 L 657 683 L 637 696 L 631 701 L 628 702 L 608 716 L 605 717 L 603 719 L 600 726 L 600 729 L 603 736 L 638 768 L 639 768 L 664 791 L 665 791 L 674 800 L 682 806 L 691 815 L 692 815 L 709 831 L 717 837 L 725 845 L 726 845 L 763 878 L 768 880 L 775 881 L 776 880 L 780 880 L 786 877 L 878 791 L 885 788 L 893 780 L 894 780 L 904 771 L 909 771 L 916 768 L 924 760 L 924 759 L 944 735 L 946 731 L 950 727 L 953 721 L 953 710 L 945 694 L 943 692 L 943 690 L 941 688 L 941 686 L 935 674 L 935 672 L 933 668 L 933 665 L 932 664 L 932 660 L 931 659 L 932 649 L 935 642 L 938 638 L 965 612 L 966 612 L 1028 549 L 1028 548 L 1035 541 L 1047 524 L 1048 521 L 1050 519 L 1051 515 L 1054 510 L 1054 508 L 1057 501 L 1057 498 L 1058 497 L 1058 484 L 1059 483 L 1058 481 L 1058 476 L 1057 475 L 1057 472 L 1056 471 L 1055 466 L 1051 458 L 1041 447 Z M 721 661 L 725 662 L 787 716 L 788 716 L 807 733 L 808 733 L 826 749 L 827 749 L 845 765 L 846 765 L 859 776 L 859 777 L 849 787 L 848 787 L 819 815 L 818 815 L 807 826 L 806 826 L 795 837 L 794 837 L 780 850 L 778 850 L 772 844 L 772 843 L 747 814 L 747 811 L 767 790 L 768 783 L 766 779 L 763 776 L 759 774 L 755 774 L 750 777 L 732 795 L 731 795 L 686 754 L 686 753 L 714 726 L 714 718 L 710 713 L 706 711 L 700 711 L 698 712 L 669 739 L 666 739 L 643 722 L 643 720 L 645 718 L 662 707 L 669 701 L 676 697 L 696 682 Z M 742 639 L 748 633 L 749 633 L 802 679 L 803 679 L 810 686 L 816 690 L 824 698 L 825 698 L 866 734 L 867 734 L 879 745 L 880 745 L 888 753 L 888 754 L 879 762 L 877 762 L 860 747 L 853 742 L 847 736 L 846 736 L 840 730 L 833 725 L 827 719 L 826 719 L 820 713 L 819 713 L 814 708 L 807 703 L 779 678 L 773 674 L 767 668 L 766 668 L 760 662 L 759 662 L 753 656 L 745 650 L 739 644 Z M 1021 461 L 1025 463 L 1033 471 L 1037 482 L 1037 489 L 1034 497 L 1034 500 L 1027 514 L 1018 526 L 1003 542 L 1003 543 L 948 598 L 947 598 L 923 622 L 922 622 L 916 630 L 912 638 L 912 640 L 910 644 L 910 649 L 909 650 L 909 661 L 910 662 L 910 668 L 911 669 L 911 672 L 912 673 L 912 676 L 913 677 L 914 682 L 923 700 L 923 702 L 928 710 L 929 716 L 922 726 L 910 740 L 907 739 L 901 733 L 894 728 L 880 715 L 879 715 L 873 709 L 866 704 L 859 697 L 858 697 L 838 679 L 831 674 L 824 667 L 823 667 L 796 643 L 789 638 L 762 614 L 762 613 L 776 597 L 776 596 L 785 587 L 787 586 L 794 587 L 820 599 L 823 599 L 830 602 L 840 603 L 841 604 L 854 604 L 855 603 L 861 603 L 862 602 L 870 600 L 878 596 L 885 591 L 895 581 L 895 580 L 912 559 L 917 551 L 921 547 L 930 535 L 932 531 L 953 505 L 953 504 L 964 492 L 964 491 L 983 472 L 991 466 L 1001 461 L 1004 461 L 1008 459 L 1013 459 L 1014 460 Z M 808 295 L 804 292 L 802 292 L 801 291 L 711 291 L 706 293 L 701 299 L 701 301 L 700 302 L 700 321 L 698 322 L 678 307 L 674 305 L 671 302 L 667 300 L 664 297 L 657 293 L 654 290 L 629 273 L 626 270 L 619 266 L 598 250 L 594 248 L 587 242 L 580 239 L 575 239 L 574 238 L 567 239 L 557 244 L 529 265 L 522 269 L 519 272 L 494 289 L 487 295 L 483 297 L 480 300 L 476 302 L 473 305 L 448 322 L 441 328 L 423 340 L 416 346 L 391 363 L 384 369 L 363 383 L 352 392 L 345 396 L 324 412 L 307 423 L 296 432 L 289 436 L 257 460 L 250 464 L 236 475 L 232 477 L 228 485 L 229 492 L 234 498 L 239 500 L 243 500 L 244 499 L 246 499 L 249 496 L 253 494 L 256 491 L 260 489 L 263 486 L 267 484 L 291 466 L 293 467 L 293 695 L 294 696 L 294 698 L 299 703 L 301 703 L 302 704 L 308 704 L 309 703 L 311 703 L 315 699 L 317 695 L 317 448 L 320 445 L 324 443 L 348 425 L 355 421 L 362 415 L 366 413 L 369 410 L 373 408 L 376 405 L 401 388 L 426 369 L 433 365 L 440 359 L 454 350 L 461 344 L 468 340 L 486 326 L 490 324 L 493 321 L 497 319 L 511 308 L 515 306 L 518 303 L 522 301 L 525 298 L 529 296 L 532 293 L 536 291 L 543 285 L 547 283 L 550 280 L 557 276 L 573 264 L 580 268 L 583 271 L 587 273 L 590 276 L 594 278 L 597 281 L 601 283 L 604 286 L 608 288 L 611 291 L 615 293 L 618 296 L 622 298 L 625 301 L 629 303 L 632 306 L 636 308 L 639 311 L 643 313 L 664 329 L 678 338 L 685 344 L 706 358 L 720 369 L 727 373 L 730 376 L 734 378 L 737 381 L 741 383 L 744 386 L 748 388 L 751 391 L 755 393 L 758 396 L 762 398 L 786 416 L 793 420 L 800 426 L 807 430 L 821 441 L 842 455 L 849 461 L 853 463 L 877 481 L 884 485 L 887 488 L 893 491 L 898 491 L 904 488 L 908 482 L 909 477 L 907 472 L 901 466 L 887 457 L 867 442 L 860 438 L 857 435 L 853 433 L 850 430 L 846 428 L 822 410 L 815 406 L 811 402 L 811 301 Z M 724 315 L 787 315 L 788 316 L 788 383 L 787 384 L 785 384 L 779 380 L 776 377 L 772 375 L 769 372 L 762 368 L 759 365 L 752 361 L 749 358 L 745 356 L 742 353 L 738 351 L 735 348 L 723 340 L 723 316 Z" fill="currentColor" fill-rule="evenodd" clip-rule="evenodd"/>
</svg>