<svg width="900" height="1100" viewBox="0 0 900 1100" fill="none" xmlns="http://www.w3.org/2000/svg">
  <!-- PLACEHOLDER — vervang dit door een echte foto (bijv. /diensten-foto.jpg) -->
  <defs>
    <linearGradient id="sky" x1="0" y1="0" x2="0.4" y2="1">
      <stop offset="0" stop-color="#bcd4f0"/>
      <stop offset="0.55" stop-color="#e8eef6"/>
      <stop offset="1" stop-color="#f3ede2"/>
    </linearGradient>
    <linearGradient id="wall" x1="0" y1="0" x2="0" y2="1">
      <stop offset="0" stop-color="#f7f2e9"/>
      <stop offset="1" stop-color="#e7dcc8"/>
    </linearGradient>
    <linearGradient id="freshpaint" x1="0" y1="0" x2="1" y2="0">
      <stop offset="0" stop-color="#2d5aa8"/>
      <stop offset="1" stop-color="#1a3a6b"/>
    </linearGradient>
  </defs>

  <rect width="900" height="1100" fill="url(#sky)"/>

  <circle cx="700" cy="180" r="150" fill="#fce8bf" opacity="0.7"/>
  <circle cx="700" cy="180" r="80" fill="#fdd989" opacity="0.8"/>

  <rect y="880" width="900" height="220" fill="#dcd2bd"/>
  <rect y="880" width="900" height="16" fill="#cfc3a8"/>

  <rect x="180" y="330" width="560" height="560" fill="url(#wall)"/>
  <path d="M140 340 L460 150 L780 340 Z" fill="#8a4a3a"/>
  <path d="M140 340 L460 150 L780 340 Z" fill="#000" opacity="0.06"/>

  <rect x="180" y="560" width="560" height="330" fill="url(#freshpaint)"/>
  <rect x="180" y="558" width="560" height="6" fill="#3f6dc0" opacity="0.7"/>

  <rect x="250" y="410" width="150" height="120" rx="4" fill="#cfe0f2" stroke="#ffffff" stroke-width="10"/>
  <line x1="325" y1="410" x2="325" y2="530" stroke="#ffffff" stroke-width="8"/>
  <line x1="250" y1="470" x2="400" y2="470" stroke="#ffffff" stroke-width="8"/>

  <rect x="520" y="430" width="130" height="130" rx="4" fill="#b9c9dd" stroke="#ffffff" stroke-width="10"/>

  <g>
    <ellipse cx="470" cy="885" rx="120" ry="18" fill="#000" opacity="0.08"/>
    <rect x="420" y="640" width="90" height="150" rx="18" fill="#e6a636"/>
    <circle cx="465" cy="612" r="34" fill="#e9b892"/>
    <path d="M430 606 q35 -40 70 0 z" fill="#1a3a6b"/>
    <rect x="428" y="602" width="74" height="10" rx="5" fill="#1a3a6b"/>
    <rect x="500" y="640" width="20" height="90" rx="10" fill="#e9b892" transform="rotate(35 510 685)"/>
    <rect x="560" y="600" width="70" height="16" rx="8" fill="#c9c9c9" transform="rotate(35 560 600)"/>
    <rect x="590" y="560" width="26" height="70" rx="10" fill="#2d5aa8" transform="rotate(35 603 595)"/>
  </g>

  <g opacity="0.9">
    <rect x="300" y="1000" width="300" height="52" rx="26" fill="#1a3a6b"/>
    <text x="450" y="1033" font-family="Arial, Helvetica, sans-serif" font-size="22" font-weight="bold" fill="#ffffff" text-anchor="middle">Placeholder — eigen foto</text>
  </g>
</svg>
