<svg xmlns="http://www.w3.org/2000/svg" viewBox="0 0 849 607" width="849" height="607" role="img" aria-label="Latex spuitwerk icoon">
  <path d="M 41 155 L 41 158 L 43 160 L 75 160 L 77 158 L 77 155 L 75 153 L 43 153 Z M 41 130 L 41 133 L 43 135 L 75 135 L 77 133 L 77 131 L 75 128 L 43 128 Z M 41 106 L 41 108 L 44 111 L 74 111 L 75 110 L 76 110 L 76 109 L 77 108 L 77 106 L 76 105 L 76 104 L 75 104 L 74 103 L 44 103 L 43 104 L 42 104 L 42 105 Z M 593 111 L 592 111 L 590 109 L 589 109 L 588 108 L 586 108 L 585 107 L 552 107 L 551 106 L 551 105 L 545 99 L 545 98 L 538 91 L 538 90 L 530 82 L 530 75 L 529 74 L 529 72 L 528 71 L 527 68 L 521 62 L 520 62 L 517 60 L 515 60 L 514 59 L 468 59 L 467 60 L 465 60 L 464 61 L 463 61 L 461 63 L 460 63 L 456 68 L 456 69 L 455 70 L 455 73 L 454 74 L 454 81 L 453 82 L 417 82 L 413 78 L 413 77 L 410 74 L 410 73 L 407 70 L 407 69 L 404 66 L 404 65 L 400 61 L 399 61 L 397 59 L 396 59 L 395 58 L 394 58 L 393 57 L 390 56 L 388 54 L 387 54 L 386 53 L 385 53 L 384 52 L 383 52 L 382 51 L 381 51 L 380 50 L 379 50 L 378 49 L 377 49 L 376 48 L 373 47 L 371 45 L 370 45 L 369 44 L 366 43 L 364 41 L 363 41 L 358 38 L 170 38 L 169 39 L 166 39 L 165 40 L 164 40 L 163 41 L 162 41 L 161 42 L 158 43 L 156 45 L 155 45 L 148 52 L 148 53 L 146 55 L 146 56 L 143 61 L 143 63 L 142 64 L 142 66 L 141 67 L 141 71 L 140 72 L 140 96 L 139 97 L 99 97 L 98 96 L 98 92 L 97 91 L 97 88 L 96 87 L 96 86 L 94 84 L 94 83 L 89 79 L 88 79 L 87 78 L 85 78 L 84 77 L 35 77 L 34 78 L 31 78 L 30 79 L 29 79 L 23 85 L 23 86 L 21 89 L 21 91 L 20 92 L 20 172 L 21 173 L 21 175 L 22 176 L 23 179 L 27 183 L 28 183 L 31 185 L 33 185 L 34 186 L 84 186 L 85 185 L 87 185 L 88 184 L 91 183 L 95 179 L 95 178 L 97 175 L 97 173 L 98 172 L 98 169 L 99 168 L 139 168 L 140 169 L 140 173 L 141 174 L 141 178 L 142 179 L 142 181 L 143 182 L 143 183 L 144 184 L 145 187 L 148 190 L 148 191 L 150 193 L 151 193 L 154 196 L 155 196 L 158 198 L 160 198 L 161 199 L 163 199 L 164 200 L 173 200 L 174 201 L 177 202 L 180 205 L 180 206 L 182 209 L 182 211 L 183 212 L 183 215 L 182 216 L 182 219 L 179 224 L 179 226 L 177 229 L 177 231 L 176 232 L 176 234 L 174 237 L 174 239 L 173 240 L 173 242 L 172 243 L 172 244 L 171 245 L 171 247 L 169 250 L 169 252 L 168 253 L 168 255 L 167 256 L 167 258 L 165 261 L 165 263 L 164 264 L 164 266 L 163 267 L 163 269 L 162 270 L 162 272 L 161 273 L 161 275 L 160 276 L 160 278 L 159 279 L 159 281 L 158 282 L 158 284 L 157 285 L 157 287 L 156 288 L 156 290 L 155 291 L 155 293 L 154 294 L 154 296 L 153 297 L 153 299 L 152 300 L 152 303 L 151 304 L 151 306 L 150 307 L 150 309 L 149 310 L 149 313 L 148 314 L 148 316 L 147 317 L 147 320 L 146 321 L 146 323 L 145 324 L 145 327 L 144 328 L 144 330 L 143 331 L 143 334 L 142 335 L 142 337 L 141 338 L 141 341 L 140 342 L 140 345 L 139 346 L 139 349 L 138 350 L 138 353 L 137 354 L 137 357 L 136 358 L 136 361 L 135 362 L 135 366 L 134 367 L 134 370 L 133 371 L 133 374 L 132 375 L 132 379 L 131 380 L 131 384 L 130 385 L 130 388 L 129 389 L 129 393 L 128 394 L 128 398 L 127 399 L 127 403 L 126 404 L 126 408 L 125 409 L 125 413 L 124 414 L 124 418 L 123 419 L 123 423 L 122 424 L 122 428 L 121 429 L 121 433 L 120 434 L 120 438 L 119 439 L 119 443 L 118 444 L 118 449 L 117 450 L 117 454 L 116 455 L 116 462 L 117 463 L 117 465 L 118 466 L 118 467 L 120 469 L 120 470 L 123 473 L 124 473 L 126 475 L 128 475 L 129 476 L 131 476 L 132 477 L 132 482 L 131 483 L 131 487 L 130 488 L 130 492 L 129 493 L 129 498 L 128 499 L 128 503 L 127 504 L 127 512 L 128 513 L 128 516 L 126 518 L 126 521 L 125 522 L 125 526 L 124 527 L 124 531 L 123 532 L 123 537 L 124 538 L 124 542 L 121 547 L 121 550 L 120 551 L 120 556 L 119 557 L 119 568 L 120 569 L 121 572 L 123 574 L 123 575 L 124 575 L 127 578 L 128 578 L 131 580 L 133 580 L 134 581 L 138 581 L 139 582 L 143 582 L 144 583 L 148 583 L 149 584 L 156 584 L 157 585 L 167 585 L 168 586 L 169 586 L 170 585 L 175 585 L 176 584 L 178 584 L 180 582 L 181 582 L 185 578 L 185 577 L 187 575 L 187 573 L 188 572 L 188 568 L 189 567 L 189 562 L 190 561 L 190 553 L 189 552 L 189 551 L 193 545 L 194 545 L 195 544 L 198 544 L 201 541 L 201 534 L 199 532 L 196 532 L 195 531 L 195 527 L 194 526 L 194 525 L 196 523 L 196 522 L 197 521 L 197 519 L 198 518 L 198 513 L 199 512 L 199 507 L 200 506 L 200 501 L 201 500 L 201 495 L 202 494 L 202 490 L 203 489 L 203 486 L 204 485 L 208 485 L 209 486 L 216 486 L 217 487 L 232 487 L 233 486 L 236 485 L 238 483 L 239 483 L 242 480 L 242 479 L 245 474 L 245 464 L 244 463 L 244 461 L 242 459 L 242 458 L 239 455 L 239 454 L 237 451 L 237 449 L 236 448 L 236 439 L 237 438 L 237 436 L 238 435 L 239 432 L 244 427 L 245 427 L 247 425 L 248 425 L 253 420 L 253 419 L 256 414 L 256 403 L 255 402 L 255 400 L 254 399 L 254 398 L 251 395 L 251 394 L 249 391 L 249 387 L 248 386 L 248 379 L 249 378 L 249 376 L 250 375 L 250 374 L 251 373 L 252 370 L 256 366 L 257 366 L 259 364 L 262 363 L 267 358 L 267 356 L 269 353 L 269 349 L 270 348 L 270 343 L 269 342 L 269 339 L 268 338 L 267 335 L 265 333 L 265 332 L 262 327 L 262 324 L 261 323 L 261 317 L 262 316 L 262 313 L 263 312 L 263 310 L 264 309 L 264 308 L 265 307 L 266 304 L 269 301 L 270 301 L 272 299 L 273 299 L 274 298 L 275 298 L 277 296 L 278 296 L 282 290 L 282 288 L 283 287 L 283 282 L 284 281 L 284 277 L 285 276 L 285 272 L 286 271 L 286 266 L 287 265 L 287 262 L 288 261 L 288 256 L 289 255 L 289 251 L 290 250 L 290 245 L 291 244 L 291 240 L 292 239 L 292 235 L 293 234 L 293 230 L 294 229 L 294 225 L 295 224 L 295 220 L 296 219 L 296 215 L 297 214 L 297 211 L 298 210 L 298 208 L 300 206 L 300 205 L 304 201 L 305 201 L 307 199 L 309 199 L 310 198 L 317 198 L 318 199 L 318 213 L 319 214 L 319 227 L 320 228 L 320 239 L 321 240 L 321 249 L 322 250 L 322 257 L 323 258 L 323 264 L 324 265 L 324 271 L 325 272 L 325 278 L 326 279 L 326 283 L 327 284 L 327 288 L 328 289 L 328 293 L 329 294 L 329 297 L 330 298 L 330 301 L 331 302 L 331 305 L 332 306 L 332 308 L 333 309 L 333 312 L 334 313 L 334 315 L 335 316 L 335 319 L 337 322 L 337 324 L 338 325 L 338 327 L 339 328 L 339 329 L 340 330 L 340 331 L 341 332 L 341 333 L 342 334 L 342 335 L 343 336 L 343 337 L 344 338 L 345 341 L 347 343 L 347 344 L 350 347 L 350 348 L 360 358 L 361 358 L 364 361 L 365 361 L 367 363 L 368 363 L 369 364 L 370 364 L 375 367 L 377 367 L 378 368 L 380 368 L 381 369 L 384 369 L 385 370 L 389 370 L 390 371 L 398 371 L 399 372 L 409 372 L 410 371 L 413 371 L 414 370 L 417 369 L 421 365 L 421 364 L 423 361 L 423 351 L 422 350 L 421 347 L 409 335 L 409 334 L 407 332 L 406 329 L 404 327 L 404 326 L 402 323 L 402 321 L 400 318 L 400 316 L 399 315 L 399 313 L 398 312 L 398 310 L 397 309 L 397 306 L 396 305 L 396 302 L 395 301 L 395 298 L 394 297 L 394 293 L 393 292 L 393 287 L 392 286 L 392 281 L 391 280 L 391 273 L 390 272 L 390 263 L 389 262 L 389 249 L 388 248 L 388 199 L 389 198 L 413 198 L 415 200 L 418 200 L 419 201 L 453 201 L 454 202 L 454 208 L 455 209 L 455 211 L 456 212 L 457 215 L 461 219 L 462 219 L 465 221 L 467 221 L 468 222 L 514 222 L 515 221 L 517 221 L 518 220 L 521 219 L 527 213 L 527 212 L 529 209 L 529 206 L 530 205 L 530 199 L 535 194 L 535 193 L 542 186 L 542 185 L 549 178 L 549 177 L 552 174 L 585 174 L 586 173 L 588 173 L 589 172 L 592 171 L 596 167 L 596 166 L 598 163 L 598 144 L 596 141 L 596 140 L 598 137 L 598 119 L 597 118 L 597 116 Z M 133 551 L 135 549 L 137 549 L 138 550 L 144 550 L 145 551 L 150 551 L 151 552 L 156 552 L 157 553 L 163 553 L 164 554 L 169 554 L 170 555 L 175 555 L 177 557 L 177 561 L 176 562 L 176 568 L 175 569 L 175 570 L 173 572 L 172 572 L 171 573 L 161 573 L 160 572 L 154 572 L 153 571 L 148 571 L 147 570 L 143 570 L 142 569 L 139 569 L 138 568 L 135 568 L 132 565 L 132 564 L 131 563 L 131 561 L 132 560 L 132 556 L 133 555 Z M 137 525 L 140 522 L 145 522 L 146 523 L 151 523 L 152 524 L 158 524 L 159 525 L 164 525 L 165 526 L 171 526 L 172 527 L 177 527 L 178 528 L 180 528 L 182 530 L 182 533 L 181 534 L 181 540 L 179 543 L 173 543 L 172 542 L 166 542 L 165 541 L 160 541 L 159 540 L 154 540 L 153 539 L 147 539 L 146 538 L 141 538 L 140 537 L 138 537 L 136 535 L 136 531 L 137 530 Z M 145 479 L 146 478 L 147 478 L 148 479 L 156 479 L 157 480 L 164 480 L 165 481 L 172 481 L 173 482 L 181 482 L 182 483 L 189 483 L 190 484 L 190 489 L 189 490 L 189 494 L 188 495 L 188 501 L 187 502 L 187 507 L 186 508 L 186 512 L 185 513 L 185 515 L 184 516 L 183 516 L 182 515 L 176 515 L 175 514 L 169 514 L 168 513 L 162 513 L 161 512 L 156 512 L 155 511 L 149 511 L 148 510 L 143 510 L 142 509 L 141 509 L 140 508 L 140 506 L 141 505 L 141 500 L 142 499 L 142 494 L 143 493 L 143 488 L 144 487 L 144 482 L 145 481 Z M 332 198 L 374 198 L 375 199 L 375 247 L 376 248 L 376 261 L 377 262 L 377 270 L 378 271 L 378 279 L 379 280 L 379 286 L 380 287 L 380 292 L 381 293 L 381 297 L 382 298 L 382 302 L 383 303 L 383 306 L 384 307 L 384 310 L 385 311 L 385 314 L 386 315 L 386 317 L 387 318 L 387 320 L 388 321 L 388 323 L 389 324 L 389 326 L 390 327 L 390 328 L 391 329 L 391 330 L 392 331 L 392 332 L 393 333 L 394 336 L 396 338 L 396 339 L 398 341 L 398 342 L 401 345 L 401 346 L 411 356 L 409 359 L 395 359 L 394 358 L 390 358 L 389 357 L 386 357 L 385 356 L 383 356 L 382 355 L 380 355 L 379 354 L 378 354 L 377 353 L 374 352 L 372 350 L 371 350 L 359 338 L 359 337 L 357 335 L 357 334 L 355 332 L 355 331 L 353 328 L 353 326 L 352 325 L 352 324 L 349 319 L 349 317 L 348 316 L 348 314 L 347 313 L 347 311 L 346 310 L 346 308 L 345 307 L 345 304 L 344 303 L 344 301 L 343 300 L 343 297 L 342 296 L 342 293 L 341 292 L 341 288 L 340 287 L 340 283 L 339 282 L 339 277 L 338 276 L 338 272 L 337 271 L 337 265 L 336 264 L 336 258 L 335 257 L 335 249 L 334 248 L 334 242 L 333 241 L 333 230 L 332 229 L 332 215 L 331 214 L 331 199 Z M 99 110 L 139 110 L 140 111 L 140 154 L 139 155 L 99 155 L 98 154 L 98 111 Z M 531 103 L 538 110 L 538 111 L 546 119 L 548 119 L 549 120 L 583 120 L 586 123 L 586 132 L 585 133 L 582 133 L 581 134 L 571 134 L 570 135 L 569 135 L 567 138 L 567 143 L 569 146 L 570 146 L 571 147 L 584 147 L 586 149 L 586 159 L 584 161 L 550 161 L 549 162 L 546 162 L 537 171 L 537 172 L 531 178 L 530 177 L 530 104 Z M 422 95 L 453 95 L 454 96 L 454 187 L 453 188 L 422 188 L 421 187 L 421 96 Z M 36 90 L 82 90 L 85 93 L 85 170 L 82 173 L 79 173 L 78 174 L 69 174 L 68 173 L 67 174 L 37 174 L 33 170 L 33 94 L 34 93 L 34 92 Z M 470 72 L 512 72 L 516 76 L 516 77 L 517 78 L 517 204 L 515 206 L 515 207 L 512 209 L 478 209 L 477 210 L 472 210 L 471 209 L 469 209 L 467 206 L 467 75 Z M 355 51 L 356 52 L 359 53 L 361 55 L 362 55 L 363 56 L 364 56 L 365 57 L 368 58 L 370 60 L 371 60 L 372 61 L 373 61 L 374 62 L 375 62 L 376 63 L 377 63 L 378 64 L 379 64 L 380 65 L 381 65 L 382 66 L 383 66 L 384 67 L 385 67 L 386 68 L 389 69 L 391 71 L 392 71 L 395 74 L 395 75 L 398 78 L 398 79 L 400 81 L 400 82 L 403 85 L 403 86 L 406 89 L 406 90 L 408 92 L 408 184 L 407 185 L 310 185 L 309 186 L 305 186 L 302 188 L 300 188 L 298 190 L 297 190 L 289 198 L 289 199 L 288 200 L 288 201 L 285 206 L 285 210 L 284 211 L 284 215 L 283 216 L 283 220 L 282 221 L 282 224 L 281 225 L 281 229 L 280 230 L 280 234 L 279 235 L 279 239 L 278 240 L 278 244 L 277 245 L 277 249 L 276 250 L 276 254 L 275 255 L 275 259 L 274 260 L 274 264 L 273 265 L 273 269 L 272 270 L 272 275 L 271 276 L 271 281 L 270 282 L 270 284 L 266 288 L 265 288 L 264 289 L 263 289 L 261 291 L 260 291 L 254 298 L 254 299 L 253 300 L 253 301 L 250 306 L 250 309 L 249 310 L 249 313 L 248 314 L 248 325 L 249 326 L 249 329 L 250 330 L 250 332 L 252 335 L 252 337 L 254 339 L 254 340 L 257 345 L 257 347 L 256 348 L 256 350 L 253 353 L 252 353 L 251 354 L 250 354 L 248 356 L 247 356 L 243 360 L 243 361 L 239 366 L 239 368 L 237 371 L 237 373 L 236 374 L 236 379 L 235 380 L 235 388 L 236 389 L 236 393 L 237 394 L 237 396 L 238 397 L 238 398 L 239 399 L 240 402 L 242 404 L 242 405 L 243 406 L 243 411 L 241 414 L 240 414 L 238 416 L 237 416 L 230 422 L 230 423 L 228 425 L 228 426 L 225 431 L 225 433 L 224 434 L 224 437 L 223 438 L 223 449 L 224 450 L 224 453 L 225 454 L 225 456 L 226 457 L 226 458 L 227 459 L 228 462 L 231 465 L 231 466 L 232 467 L 232 471 L 229 474 L 228 474 L 227 475 L 222 475 L 221 474 L 213 474 L 212 473 L 205 473 L 204 472 L 197 472 L 196 471 L 188 471 L 187 470 L 180 470 L 179 469 L 172 469 L 171 468 L 163 468 L 162 467 L 154 467 L 153 466 L 147 466 L 146 465 L 139 465 L 138 464 L 133 464 L 129 460 L 129 455 L 130 454 L 130 449 L 131 448 L 131 444 L 132 443 L 132 439 L 133 438 L 133 433 L 134 432 L 134 428 L 135 427 L 135 423 L 136 422 L 136 418 L 137 417 L 137 413 L 138 412 L 138 408 L 139 407 L 139 403 L 140 402 L 140 398 L 141 397 L 141 394 L 142 393 L 142 389 L 143 388 L 143 385 L 144 384 L 144 380 L 145 379 L 145 376 L 146 375 L 146 371 L 147 370 L 147 366 L 148 365 L 148 362 L 149 361 L 149 359 L 150 358 L 150 355 L 151 354 L 151 351 L 152 350 L 152 347 L 153 346 L 153 344 L 154 343 L 154 340 L 155 339 L 155 336 L 156 335 L 156 332 L 157 331 L 157 329 L 158 328 L 158 326 L 159 325 L 159 322 L 160 321 L 160 319 L 161 318 L 161 315 L 162 314 L 162 312 L 163 311 L 163 308 L 164 307 L 164 305 L 165 304 L 165 302 L 166 301 L 166 299 L 167 298 L 167 296 L 168 295 L 168 292 L 169 291 L 169 289 L 170 288 L 170 286 L 171 285 L 171 283 L 172 282 L 172 280 L 174 277 L 174 275 L 175 274 L 175 272 L 176 271 L 176 269 L 177 268 L 177 266 L 178 265 L 178 263 L 179 262 L 179 260 L 181 257 L 181 255 L 182 254 L 182 252 L 183 251 L 183 249 L 185 246 L 185 244 L 187 241 L 187 239 L 189 236 L 189 234 L 191 231 L 191 229 L 193 226 L 193 224 L 194 223 L 194 221 L 195 220 L 195 207 L 194 206 L 194 204 L 193 203 L 193 202 L 192 201 L 191 198 L 185 192 L 184 192 L 182 190 L 180 190 L 177 188 L 169 188 L 168 187 L 165 187 L 164 186 L 161 185 L 156 180 L 156 179 L 154 177 L 154 175 L 153 174 L 153 71 L 154 70 L 154 68 L 155 67 L 155 65 L 157 63 L 157 62 L 159 60 L 159 59 L 162 56 L 163 56 L 165 54 L 166 54 L 169 52 L 171 52 L 172 51 Z" fill="currentColor" fill-rule="evenodd" clip-rule="evenodd"/>
</svg>
