<svg xmlns="http://www.w3.org/2000/svg" viewBox="0 0 528.915 528.915" width="800" height="800" role="img" aria-label="Onderhoudsschilderwerk icoon">
  <g fill="currentColor">
    <path d="M232.327,5.055v41.702c0,5.07-4.073,9.715-9.067,10.59c-111.442,19.569-196.409,117-196.409,233.962
			c0,131.017,106.589,237.605,237.605,237.605c131.018,0,237.606-106.589,237.606-237.605c0-12.675-10.275-22.95-22.95-22.95
			s-22.95,10.275-22.95,22.95c0,105.707-85.998,191.706-191.706,191.706c-105.708,0-191.706-85.999-191.706-191.706
			c0-91.583,64.569-168.328,150.564-187.208c4.951-1.086,9.012,2.359,9.012,7.427v36.723c0,5.07,3.183,6.579,7.108,3.372
			l84.621-69.162c3.926-3.21,3.926-8.409,0-11.619L239.436,1.686C235.51-1.524,232.327-0.012,232.327,5.055z"/>
    <g transform="translate(264.4575 264.4575) rotate(0) translate(-153.6 -153.6) scale(1.2)">
      <path d="M233.45508,22.544a36.04235,36.04235,0,0,0-50.91113,0q-.22852.22851-.44532.4707L130.0166,81.0459l-6.21777-6.21778a28.03349,28.03349,0,0,0-39.59766,0L7.51465,151.51465a11.99973,11.99973,0,0,0,0,16.9707l80,80a12.00033,12.00033,0,0,0,16.9707,0l76.68653-76.68652a28.03171,28.03171,0,0,0,0-39.59766l-6.21778-6.21777,58.03125-52.082q.24169-.2168.4707-.44532A36.04264,36.04264,0,0,0,233.45508,22.544ZM96,223.0293l-8.64746-8.64746,17.31445-18.083a11.99947,11.99947,0,0,0-17.334-16.59766l-16.9541,17.707L59.35254,186.38184l17.31445-18.083a11.99947,11.99947,0,0,0-17.334-16.59766l-16.9541,17.707L32.9707,160,72,120.9707,135.0293,184ZM216.67285,56.293l-60.8916,54.64941a20.00011,20.00011,0,0,0-.7832,29.02637l9.20312,9.20313a4.00088,4.00088,0,0,1,0,5.65624L152,167.0293,88.9707,104l12.20118-12.20117a4.00088,4.00088,0,0,1,5.65624,0l9.20313,9.20312a20.00011,20.00011,0,0,0,29.02637-.7832L199.707,39.32715A11.99963,11.99963,0,0,1,216.67285,56.293Z"/>
    </g>
  </g>
</svg>