<svg xmlns="http://www.w3.org/2000/svg" viewBox="0 0 1024 1024" width="1024" height="1024" role="img" aria-labelledby="title desc">
  <title id="title">Renovlies behang icoon</title>
  <desc id="desc">Behangrol en verfroller, gebaseerd op voorbeeld 3.</desc>
  <path d="M 499 470 L 492 474 L 485 480 L 485 481 L 481 485 L 481 486 L 477 491 L 476 495 L 473 501 L 473 505 L 472 506 L 472 580 L 473 581 L 473 584 L 474 585 L 475 590 L 479 598 L 482 601 L 482 602 L 490 610 L 491 610 L 496 614 L 505 618 L 513 619 L 514 620 L 753 620 L 754 619 L 758 619 L 759 618 L 764 617 L 772 613 L 774 611 L 775 611 L 785 601 L 785 600 L 789 595 L 791 591 L 792 586 L 793 585 L 793 582 L 794 581 L 794 567 L 795 566 L 794 564 L 796 560 L 800 560 L 807 563 L 814 571 L 814 573 L 815 574 L 815 661 L 811 668 L 806 672 L 744 703 L 742 703 L 740 705 L 736 707 L 734 707 L 716 716 L 714 718 L 712 718 L 684 732 L 679 737 L 676 744 L 676 763 L 674 765 L 665 769 L 655 778 L 655 779 L 651 783 L 649 788 L 647 790 L 647 792 L 644 798 L 644 802 L 643 803 L 643 875 L 644 876 L 645 883 L 650 893 L 655 899 L 655 900 L 664 908 L 678 915 L 686 916 L 687 917 L 700 917 L 701 916 L 705 916 L 706 915 L 712 914 L 723 908 L 733 899 L 733 898 L 738 892 L 741 886 L 741 884 L 744 877 L 744 871 L 745 870 L 745 808 L 744 807 L 744 801 L 743 800 L 742 794 L 734 780 L 725 771 L 719 768 L 717 766 L 713 765 L 711 763 L 711 759 L 713 757 L 807 710 L 809 710 L 821 704 L 823 702 L 829 699 L 833 695 L 834 695 L 840 688 L 847 676 L 847 674 L 849 670 L 849 666 L 850 665 L 850 569 L 849 568 L 849 565 L 848 564 L 847 559 L 839 545 L 827 534 L 824 533 L 820 530 L 818 530 L 812 527 L 802 526 L 801 525 L 795 525 L 794 524 L 794 521 L 795 520 L 794 519 L 794 504 L 793 503 L 791 495 L 788 489 L 786 487 L 784 483 L 777 476 L 776 476 L 771 472 L 759 467 L 756 467 L 755 466 L 511 466 L 510 467 L 507 467 L 501 470 Z M 690 796 L 698 796 L 702 798 L 708 804 L 709 806 L 709 809 L 710 810 L 710 868 L 707 875 L 703 879 L 697 882 L 691 882 L 684 879 L 681 876 L 678 871 L 678 807 L 680 803 L 684 799 Z M 507 510 L 509 506 L 511 505 L 512 503 L 516 501 L 751 501 L 753 503 L 754 503 L 759 509 L 759 576 L 758 578 L 752 584 L 750 584 L 749 585 L 517 585 L 516 584 L 514 584 L 508 578 L 507 576 Z M 216 112 L 210 117 L 209 117 L 196 131 L 186 148 L 186 150 L 184 153 L 184 155 L 182 158 L 182 160 L 179 167 L 179 170 L 178 171 L 178 174 L 177 175 L 177 179 L 176 180 L 176 184 L 175 185 L 175 190 L 174 191 L 174 198 L 173 199 L 173 239 L 174 240 L 174 247 L 175 248 L 175 253 L 176 254 L 176 258 L 177 259 L 177 263 L 179 267 L 179 270 L 180 271 L 183 282 L 185 285 L 185 287 L 191 299 L 193 301 L 197 308 L 201 312 L 201 313 L 208 320 L 209 320 L 215 325 L 221 328 L 223 328 L 230 331 L 306 331 L 307 332 L 307 788 L 308 789 L 308 792 L 311 798 L 312 798 L 315 801 L 322 804 L 595 804 L 596 803 L 599 803 L 606 798 L 609 793 L 609 791 L 610 790 L 610 783 L 607 776 L 603 772 L 597 769 L 343 769 L 342 768 L 342 333 L 344 331 L 653 331 L 654 330 L 657 330 L 658 329 L 663 328 L 667 325 L 670 324 L 675 320 L 676 321 L 676 391 L 677 392 L 677 394 L 679 398 L 683 402 L 688 405 L 698 405 L 699 404 L 703 403 L 709 397 L 710 393 L 711 392 L 711 203 L 710 202 L 710 193 L 709 192 L 709 186 L 708 185 L 708 181 L 707 180 L 707 176 L 706 175 L 705 168 L 704 167 L 701 156 L 698 151 L 698 149 L 693 139 L 689 134 L 688 131 L 684 127 L 684 126 L 676 118 L 675 118 L 669 113 L 659 108 L 651 107 L 650 106 L 234 106 L 233 107 L 228 107 Z M 643 141 L 647 141 L 651 143 L 658 150 L 658 151 L 662 156 L 668 168 L 668 170 L 670 174 L 670 177 L 672 181 L 673 189 L 674 190 L 674 195 L 675 196 L 675 204 L 676 205 L 676 233 L 675 234 L 675 242 L 674 243 L 674 247 L 673 248 L 672 257 L 671 258 L 668 269 L 666 272 L 666 274 L 663 280 L 661 282 L 660 285 L 654 292 L 653 292 L 648 296 L 641 296 L 639 295 L 630 286 L 630 285 L 628 283 L 621 269 L 621 267 L 619 263 L 619 260 L 618 259 L 618 256 L 617 255 L 617 252 L 616 251 L 616 247 L 615 246 L 615 241 L 614 240 L 614 232 L 613 231 L 613 207 L 614 206 L 614 198 L 615 197 L 615 191 L 616 190 L 616 186 L 617 185 L 618 178 L 619 177 L 621 169 L 623 166 L 623 164 L 626 158 L 628 156 L 629 153 L 637 144 Z M 213 176 L 214 175 L 215 170 L 217 167 L 217 165 L 224 152 L 233 143 L 237 141 L 594 141 L 595 143 L 593 145 L 593 147 L 589 154 L 589 156 L 588 157 L 588 159 L 587 160 L 587 162 L 584 169 L 584 172 L 583 173 L 583 176 L 582 177 L 582 181 L 581 182 L 580 194 L 579 195 L 579 205 L 578 206 L 578 231 L 579 232 L 579 242 L 580 243 L 580 250 L 581 251 L 581 255 L 582 256 L 583 265 L 585 269 L 585 272 L 586 273 L 588 281 L 595 295 L 593 297 L 592 296 L 240 296 L 239 297 L 232 294 L 227 289 L 227 288 L 222 282 L 215 267 L 215 265 L 212 258 L 211 250 L 210 249 L 210 245 L 209 244 L 209 237 L 208 236 L 208 201 L 209 200 L 209 194 L 210 193 L 210 188 L 211 187 Z" fill="#151515" fill-rule="evenodd" clip-rule="evenodd" shape-rendering="geometricPrecision"/>
</svg>